# xmcd
#
# Track frame offsets:
#	150
#	16797
#	33957
#	48587
#	66667
#	84652
#	102910
#	121692
#	136877
#	154360
#	174850
#
# Disc length: 2531 seconds
#
# Revision: 8
# Processed by: cddbd v1.5.2PL0 Copyright (c) Steve Scherf et al.
# Submitted via: EasyCDDAExtractor 12.0.1.1
#
DISCID=8909e10b
DTITLE=Carlos Ponce - Todo Lo Que Soy
DYEAR=1999
DGENRE=Latin
TTITLE0=Todo Lo Que Soy
TTITLE1=La Razon De Mi Ser
TTITLE2=Escuchame
TTITLE3=Sigues Conmigo
TTITLE4=Amiga Sombra
TTITLE5=Hay Algo En Ti
TTITLE6=Me Muero, Me Muero
TTITLE7=Si Te Vas
TTITLE8=Dejate Querer
TTITLE9=Vuelve A Mi
TTITLE10=Cancion De Cuna
EXTD=YEAR: 1999
EXTT0=
EXTT1=
EXTT2=
EXTT3=
EXTT4=
EXTT5=
EXTT6=
EXTT7=
EXTT8=
EXTT9=
EXTT10=
PLAYORDER=
